<?xml version="1.0" standalone="no"?>
<!DOCTYPE svg PUBLIC "-//W3C//DTD SVG 20010904//EN"
 "http://www.w3.org/TR/2001/REC-SVG-20010904/DTD/svg10.dtd">
<svg version="1.0" xmlns="http://www.w3.org/2000/svg"
 width="256.000000pt" height="256.000000pt" viewBox="0 0 256.000000 256.000000"
 preserveAspectRatio="xMidYMid meet">
<metadata>
Created by potrace 1.11, written by Peter Selinger 2001-2013
</metadata>
<g transform="translate(0.000000,256.000000) scale(0.100000,-0.100000)"
fill="#000000" stroke="none">
<path d="M1120 2265 c-260 -42 -505 -197 -656 -413 -279 -399 -232 -934 112
-1276 395 -392 1019 -391 1409 1 218 220 323 520 286 820 -46 367 -290 681
-634 813 -157 61 -354 82 -517 55z m170 -885 l155 -239 3 239 2 240 80 0 80 0
0 -365 0 -365 -84 0 -85 0 -36 53 c-20 28 -95 142 -166 251 l-129 199 0 -252
0 -251 -80 0 -80 0 0 365 0 365 93 -1 92 0 155 -239z"/>
</g>
</svg>
